Madagascar ist ein computeranimierter Trickfilm. Er entstand unter dem Arbeitstitel „Wild Life“ in den Dreamworks Animation Studios, die vor allem mit der Shrek-Reihe und dem Film Große Haie – Kleine Fische Erfolge feierte. 240 Mitarbeiter arbeiteten 4 Jahre lang an der Vollendung des Filmes. In Deutschland sahen ihn mehr als 6,5 Mio. Kinozuschauer.


Deutsch/English Audio
Deutsch Closed Caption

Input #0, matroska, from 'Madagascar (2005).mkv':
  Duration: 01:25:58.11, start: 0.000000, bitrate: N/A
    Stream #0.0: Video: h264, yuv420p, 1920x1080, PAR 1:1 DAR 16:9, 23.98 tbr, 1k tbn, 47.95 tbc
    Stream #0.1(ger): Audio: ac3, 48000 Hz, 5.1, s16
    Stream #0.2(eng): Audio: ac3, 48000 Hz, 5.1, s16
    Stream #0.3(ger): Subtitle: 0x0000
